<svg width="24" height="24" viewBox="0 0 24 24" fill="none" xmlns="http://www.w3.org/2000/svg">
<path d="M4.84834 7C3.89875 7 2.97048 7.29332 2.18096 7.84287C1.39145 8.39241 0.776143 9.17349 0.412885 10.0873C0.0496272 11.0011 -0.0452662 12.0066 0.140207 12.9766C0.32568 13.9466 0.783188 14.8375 1.45486 15.5366C2.12653 16.2358 2.9822 16.7117 3.91362 16.9043C4.84504 17.0969 5.81037 16.9974 6.68751 16.6185C7.56465 16.2396 8.3142 15.5982 8.84134 14.7756C9.36847 13.9529 9.64952 12.9859 9.64894 11.9969C9.64841 10.6713 9.14237 9.40014 8.24211 8.46307C7.34186 7.526 6.1211 6.99973 4.84834 7V7ZM4.84834 15.312C4.21913 15.3122 3.604 15.118 3.08075 14.7541C2.5575 14.3901 2.14965 13.8727 1.90877 13.2673C1.66789 12.6619 1.60482 11.9956 1.72752 11.3529C1.85022 10.7101 2.15319 10.1197 2.59811 9.6563C3.04303 9.1929 3.6099 8.87735 4.22703 8.74955C4.84416 8.62175 5.48381 8.68744 6.06509 8.93833C6.64636 9.18921 7.14314 9.61401 7.49259 10.159C7.84203 10.704 8.02845 11.3447 8.02825 12C8.02746 12.8779 7.69209 13.7195 7.09583 14.3399C6.49956 14.9604 5.69119 15.3089 4.84834 15.3089V15.312Z" fill="white"/>
<path d="M16.5042 11.7662C16.5042 12.2383 16.533 13.0436 16.5905 14.182H16.5498L12.8951 7.6179H10.6489V16.3821H12.2349V12.2524C12.2349 11.7527 12.1986 10.9175 12.1259 9.74675H12.1774L15.8381 16.3769H18.1061V7.6179H16.5003L16.5042 11.7662Z" fill="white"/>
<path d="M23.9523 9.14072V7.6179H19.1061V16.3821H23.9523V14.8469H20.8903V12.5869H23.7401V11.0651H20.8903V9.14072H23.9523Z" fill="white"/>
</svg>
